<?xml version="1.0" encoding="UTF-8"?>
<!DOCTYPE svg PUBLIC "-//W3C//DTD SVG 1.1//EN" "http://www.w3.org/Graphics/SVG/1.1/DTD/svg11.dtd">
<svg xmlns="http://www.w3.org/2000/svg" version="1.1" width="852px" height="261px" style="shape-rendering:geometricPrecision; text-rendering:geometricPrecision; image-rendering:optimizeQuality; fill-rule:evenodd; clip-rule:evenodd" xmlns:xlink="http://www.w3.org/1999/xlink">
<g><path style="opacity:0.942" fill="#020404" d="M 453.5,16.5 C 475.775,13.1479 493.442,20.4812 506.5,38.5C 502.425,41.9535 498.258,45.2868 494,48.5C 484.565,34.1277 471.398,28.961 454.5,33C 434.119,40.759 425.286,55.5923 428,77.5C 434.675,101.094 450.175,110.928 474.5,107C 488.04,102.629 496.04,93.4628 498.5,79.5C 488.167,79.5 477.833,79.5 467.5,79.5C 467.5,74.8333 467.5,70.1667 467.5,65.5C 483.167,65.5 498.833,65.5 514.5,65.5C 516.661,95.1406 503.661,114.307 475.5,123C 444.624,126.987 423.79,114.487 413,85.5C 406.757,50.6375 420.257,27.6375 453.5,16.5 Z"/></g>
<g><path style="opacity:0.94" fill="#8a8c8d" d="M 66.5,120.5 C 66.5,121.167 66.5,121.833 66.5,122.5C 60.7945,122.829 55.1278,122.495 49.5,121.5C 37.5,87.1667 25.5,52.8333 13.5,18.5C 19.4632,17.5041 25.4632,17.1707 31.5,17.5C 42.5947,52.119 54.2614,86.4524 66.5,120.5 Z"/></g>
<g><path style="opacity:0.941" fill="#020404" d="M 66.5,122.5 C 66.5,121.833 66.5,121.167 66.5,120.5C 77.8333,86.1667 89.1667,51.8333 100.5,17.5C 106.537,17.1707 112.537,17.5041 118.5,18.5C 106.291,53.1269 94.2914,87.7935 82.5,122.5C 77.1667,122.5 71.8333,122.5 66.5,122.5 Z"/></g>
<g><path style="opacity:0.979" fill="#020404" d="M 204.5,17.5 C 209.5,17.5 214.5,17.5 219.5,17.5C 219.5,52.5 219.5,87.5 219.5,122.5C 214.5,122.5 209.5,122.5 204.5,122.5C 204.5,87.5 204.5,52.5 204.5,17.5 Z"/></g>
<g><path style="opacity:0.894" fill="#020404" d="M 235.5,17.5 C 240.833,17.5 246.167,17.5 251.5,17.5C 251.5,22.8333 251.5,28.1667 251.5,33.5C 246.167,33.5 240.833,33.5 235.5,33.5C 235.5,28.1667 235.5,22.8333 235.5,17.5 Z"/></g>
<g><path style="opacity:0.995" fill="#020404" d="M 267.5,17.5 C 272.5,17.5 277.5,17.5 282.5,17.5C 282.5,52.5 282.5,87.5 282.5,122.5C 277.5,122.5 272.5,122.5 267.5,122.5C 267.5,87.5 267.5,52.5 267.5,17.5 Z"/></g>
<g><path style="opacity:0.918" fill="#020404" d="M 298.5,17.5 C 303.833,17.5 309.167,17.5 314.5,17.5C 314.5,52.5 314.5,87.5 314.5,122.5C 309.167,122.5 303.833,122.5 298.5,122.5C 298.5,87.5 298.5,52.5 298.5,17.5 Z"/></g>
<g><path style="opacity:0.939" fill="#020404" d="M 144.5,41.5 C 169.278,39.7968 185.112,50.7968 192,74.5C 192.499,79.1548 192.666,83.8215 192.5,88.5C 170.49,88.167 148.49,88.5003 126.5,89.5C 131.669,104.922 142.336,111.422 158.5,109C 165.072,107.382 170.739,104.216 175.5,99.5C 179.252,102.041 182.585,105.041 185.5,108.5C 174.015,121.385 159.681,126.218 142.5,123C 127.939,119.44 118.106,110.606 113,96.5C 106.99,68.5025 117.49,50.1692 144.5,41.5 Z M 146.5,55.5 C 162.483,54.1447 172.483,61.1447 176.5,76.5C 159.82,76.8328 143.153,76.4995 126.5,75.5C 129.586,65.0801 136.253,58.4134 146.5,55.5 Z"/></g>
<g><path style="opacity:0.943" fill="#020404" d="M 352.5,41.5 C 367.997,39.1566 381.497,43.1566 393,53.5C 394.893,56.618 396.226,59.9513 397,63.5C 397.5,83.1638 397.667,102.831 397.5,122.5C 392.5,122.5 387.5,122.5 382.5,122.5C 382.666,117.489 382.499,112.489 382,107.5C 378.314,115.598 372.147,120.764 363.5,123C 354.658,124.126 345.992,123.459 337.5,121C 324.267,112.666 320.767,101.166 327,86.5C 332.216,79.9709 339.049,76.1376 347.5,75C 359.162,74.5001 370.829,74.3335 382.5,74.5C 383.59,62.7547 378.256,56.2547 366.5,55C 359.831,53.9661 353.498,54.9661 347.5,58C 344.701,60.1233 342.701,62.7899 341.5,66C 336.511,66.4993 331.511,66.6659 326.5,66.5C 326.804,58.7271 330.137,52.5604 336.5,48C 341.603,44.9381 346.936,42.7714 352.5,41.5 Z M 358.5,85.5 C 366.5,85.5 374.5,85.5 382.5,85.5C 380.004,101.021 370.837,109.355 355,110.5C 343.224,110.408 338.557,104.741 341,93.5C 345.915,88.5939 351.748,85.9272 358.5,85.5 Z"/></g>
<g><path style="opacity:0.938" fill="#020404" d="M 609.5,41.5 C 633.856,39.7124 649.69,50.379 657,73.5C 660.384,98.5961 650.218,115.096 626.5,123C 596.186,126.184 579.186,112.684 575.5,82.5C 577.497,60.8555 588.83,47.1888 609.5,41.5 Z M 613.5,55.5 C 631.078,56.0779 641.078,65.0779 643.5,82.5C 640.338,102.843 628.672,111.343 608.5,108C 590.867,98.9897 586.367,85.4897 595,67.5C 599.727,61.0666 605.893,57.0666 613.5,55.5 Z"/></g>
<g><path style="opacity:0.93" fill="#020404" d="M 794.5,41.5 C 815.268,39.7965 829.768,48.4632 838,67.5C 845.068,92.6608 836.901,110.827 813.5,122C 806.233,123.515 798.899,123.848 791.5,123C 783.987,121.162 778.153,116.996 774,110.5C 773.5,125.163 773.333,139.83 773.5,154.5C 768.167,154.5 762.833,154.5 757.5,154.5C 757.5,117.167 757.5,79.8333 757.5,42.5C 762.833,42.5 768.167,42.5 773.5,42.5C 773.334,47.8437 773.501,53.1771 774,58.5C 778.595,50.0667 785.428,44.4 794.5,41.5 Z M 795.5,55.5 C 817.178,56.5094 827.011,67.8427 825,89.5C 817.327,108.085 804.16,113.585 785.5,106C 771.782,94.9618 769.282,81.7951 778,66.5C 782.745,60.8875 788.578,57.2208 795.5,55.5 Z"/></g>
<g><path style="opacity:0.926" fill="#020404" d="M 235.5,42.5 C 240.833,42.5 246.167,42.5 251.5,42.5C 251.5,69.1667 251.5,95.8333 251.5,122.5C 246.167,122.5 240.833,122.5 235.5,122.5C 235.5,95.8333 235.5,69.1667 235.5,42.5 Z"/></g>
<g><path style="opacity:0.93" fill="#020404" d="M 525.5,42.5 C 530.833,42.5 536.167,42.5 541.5,42.5C 541.334,48.8421 541.5,55.1754 542,61.5C 547.838,48.1668 558.004,41.8334 572.5,42.5C 572.5,47.8333 572.5,53.1667 572.5,58.5C 558.961,55.6131 549.128,60.2798 543,72.5C 541.559,89.11 541.059,105.777 541.5,122.5C 536.167,122.5 530.833,122.5 525.5,122.5C 525.5,95.8333 525.5,69.1667 525.5,42.5 Z"/></g>
<g><path style="opacity:0.934" fill="#020404" d="M 668.5,42.5 C 673.833,42.5 679.167,42.5 684.5,42.5C 684.333,59.8365 684.5,77.1699 685,94.5C 690.237,106.868 699.404,111.368 712.5,108C 719,105.5 723.5,101 726,94.5C 727.444,77.2228 727.944,59.8894 727.5,42.5C 732.833,42.5 738.167,42.5 743.5,42.5C 743.5,69.1667 743.5,95.8333 743.5,122.5C 738.167,122.5 732.833,122.5 727.5,122.5C 727.666,117.821 727.499,113.155 727,108.5C 718.812,121.904 706.978,126.737 691.5,123C 679.121,119.289 671.621,111.122 669,98.5C 668.5,79.8363 668.333,61.1696 668.5,42.5 Z"/></g>
<g><path style="opacity:0.906" fill="#8a8d8d" d="M 851.5,102.5 C 851.5,109.167 851.5,115.833 851.5,122.5C 850.5,122.5 849.5,122.5 848.5,122.5C 848.5,115.833 848.5,109.167 848.5,102.5C 849.5,102.5 850.5,102.5 851.5,102.5 Z"/></g>
<g><path style="opacity:0.866" fill="#020404" d="M 586.5,185.5 C 588.857,185.337 591.19,185.503 593.5,186C 595.418,187.77 595.918,189.937 595,192.5C 592.408,191.018 590.075,191.352 588,193.5C 586.748,196.014 586.248,198.68 586.5,201.5C 589.5,201.5 592.5,201.5 595.5,201.5C 595.5,203.167 595.5,204.833 595.5,206.5C 592.5,206.5 589.5,206.5 586.5,206.5C 586.5,215.833 586.5,225.167 586.5,234.5C 584.5,234.5 582.5,234.5 580.5,234.5C 580.5,225.167 580.5,215.833 580.5,206.5C 578.833,206.5 577.167,206.5 575.5,206.5C 575.5,204.833 575.5,203.167 575.5,201.5C 577.167,201.5 578.833,201.5 580.5,201.5C 579.196,194.725 581.196,189.391 586.5,185.5 Z"/></g>
<g><path style="opacity:0.831" fill="#020404" d="M 546.5,186.5 C 548.833,186.5 551.167,186.5 553.5,186.5C 553.5,202.5 553.5,218.5 553.5,234.5C 551.167,234.5 548.833,234.5 546.5,234.5C 546.649,233.448 546.483,232.448 546,231.5C 540.034,235.803 533.534,236.636 526.5,234C 518.928,228.388 516.428,220.888 519,211.5C 523.279,202.277 530.446,198.777 540.5,201C 542.587,201.792 544.421,202.959 546,204.5C 546.499,198.509 546.666,192.509 546.5,186.5 Z M 531.5,206.5 C 540.594,205.206 545.927,209.04 547.5,218C 545.151,228.407 539.151,231.741 529.5,228C 524.319,223.433 523.153,217.933 526,211.5C 527.73,209.598 529.563,207.931 531.5,206.5 Z"/></g>
<g><path style="opacity:0.898" fill="#020404" d="M 679.5,186.5 C 681.5,186.5 683.5,186.5 685.5,186.5C 685.5,202.5 685.5,218.5 685.5,234.5C 683.5,234.5 681.5,234.5 679.5,234.5C 679.5,218.5 679.5,202.5 679.5,186.5 Z"/></g>
<g><path style="opacity:0.818" fill="#020404" d="M 385.5,187.5 C 390.385,188.53 391.718,191.363 389.5,196C 384,197.167 381.833,195 383,189.5C 383.995,188.934 384.828,188.267 385.5,187.5 Z"/></g>
<g><path style="opacity:0.765" fill="#020404" d="M 695.5,187.5 C 701.329,188.322 702.662,191.155 699.5,196C 694,197.167 691.833,195 693,189.5C 693.995,188.934 694.828,188.267 695.5,187.5 Z"/></g>
<g><path style="opacity:0.829" fill="#020404" d="M 743.5,187.5 C 748.318,188.303 749.651,190.97 747.5,195.5C 743.559,197.437 741.226,196.271 740.5,192C 740.557,189.791 741.557,188.291 743.5,187.5 Z"/></g>
<g><path style="opacity:0.908" fill="#020404" d="M 267.5,188.5 C 277.833,188.5 288.167,188.5 298.5,188.5C 298.5,190.5 298.5,192.5 298.5,194.5C 290.167,194.5 281.833,194.5 273.5,194.5C 273.5,198.833 273.5,203.167 273.5,207.5C 281.167,207.5 288.833,207.5 296.5,207.5C 296.5,209.5 296.5,211.5 296.5,213.5C 288.833,213.5 281.167,213.5 273.5,213.5C 273.5,218.5 273.5,223.5 273.5,228.5C 282.167,228.5 290.833,228.5 299.5,228.5C 299.5,230.5 299.5,232.5 299.5,234.5C 288.833,234.5 278.167,234.5 267.5,234.5C 267.5,219.167 267.5,203.833 267.5,188.5 Z"/></g>
<g><path style="opacity:0.867" fill="#020404" d="M 314.5,200.5 C 320.971,199.345 326.471,201.011 331,205.5C 331.49,204.207 331.657,202.873 331.5,201.5C 333.5,201.5 335.5,201.5 337.5,201.5C 337.5,217.5 337.5,233.5 337.5,249.5C 335.5,249.5 333.5,249.5 331.5,249.5C 331.666,243.491 331.499,237.491 331,231.5C 324.19,236.22 317.023,236.72 309.5,233C 300.167,223 300.167,213 309.5,203C 311.315,202.243 312.981,201.41 314.5,200.5 Z M 315.5,206.5 C 328.628,205.796 333.461,211.796 330,224.5C 324.538,231.267 318.538,231.933 312,226.5C 307.105,218.751 308.272,212.085 315.5,206.5 Z"/></g>
<g><path style="opacity:0.865" fill="#020404" d="M 410.5,200.5 C 427.302,199.804 434.469,207.804 432,224.5C 427.973,234.08 420.807,237.58 410.5,235C 407.804,234.31 405.637,232.81 404,230.5C 403.5,236.825 403.334,243.158 403.5,249.5C 401.5,249.5 399.5,249.5 397.5,249.5C 397.5,233.5 397.5,217.5 397.5,201.5C 399.5,201.5 401.5,201.5 403.5,201.5C 403.343,202.873 403.51,204.207 404,205.5C 405.965,203.45 408.132,201.783 410.5,200.5 Z M 410.5,206.5 C 423.628,205.796 428.461,211.796 425,224.5C 418.978,232.029 412.645,232.363 406,225.5C 402.324,217.871 403.824,211.538 410.5,206.5 Z"/></g>
<g><path style="opacity:0.86" fill="#020404" d="M 451.5,200.5 C 465.151,198.644 472.817,204.477 474.5,218C 473.086,232.077 465.419,237.744 451.5,235C 449.413,234.208 447.579,233.041 446,231.5C 445.501,237.491 445.334,243.491 445.5,249.5C 443.5,249.5 441.5,249.5 439.5,249.5C 439.5,233.5 439.5,217.5 439.5,201.5C 441.5,201.5 443.5,201.5 445.5,201.5C 445.351,202.552 445.517,203.552 446,204.5C 447.812,203.023 449.645,201.69 451.5,200.5 Z M 452.5,206.5 C 465.2,206.365 469.7,212.365 466,224.5C 458.64,232.525 451.974,231.859 446,222.5C 444.062,215.389 446.229,210.056 452.5,206.5 Z"/></g>
<g><path style="opacity:0.846" fill="#020404" d="M 490.5,200.5 C 505.696,198.704 513.363,205.371 513.5,220.5C 504.143,220.168 494.81,220.502 485.5,221.5C 491.939,232.439 499.439,233.105 508,223.5C 509.586,224.376 511.086,225.376 512.5,226.5C 511.028,229.805 508.695,232.305 505.5,234C 487.489,238.764 478.656,231.93 479,213.5C 480.617,207.058 484.45,202.725 490.5,200.5 Z M 491.5,206.5 C 498.486,204.829 503.486,207.162 506.5,213.5C 499.5,214.833 492.5,214.833 485.5,213.5C 486.833,210.507 488.833,208.173 491.5,206.5 Z"/></g>
<g><path style="opacity:0.859" fill="#020404" d="M 609.5,200.5 C 628.166,199.666 635.333,208.332 631,226.5C 625.771,235.021 618.271,237.855 608.5,235C 598.666,230.156 595.166,222.322 598,211.5C 600.437,206.226 604.271,202.56 609.5,200.5 Z M 610.5,206.5 C 624.335,206.165 628.835,212.498 624,225.5C 619.451,230.58 614.285,231.414 608.5,228C 601.414,220.103 602.081,212.936 610.5,206.5 Z"/></g>
<g><path style="opacity:0.873" fill="#020404" d="M 651.5,200.5 C 656.418,200.172 658.418,202.505 657.5,207.5C 652.424,205.391 648.591,206.724 646,211.5C 644.644,219.095 644.144,226.762 644.5,234.5C 642.5,234.5 640.5,234.5 638.5,234.5C 638.5,223.5 638.5,212.5 638.5,201.5C 640.5,201.5 642.5,201.5 644.5,201.5C 644.351,202.552 644.517,203.552 645,204.5C 647.013,202.752 649.18,201.418 651.5,200.5 Z"/></g>
<g><path style="opacity:0.855" fill="#020404" d="M 767.5,200.5 C 778.474,198.987 784.641,203.654 786,214.5C 786.5,221.158 786.666,227.825 786.5,234.5C 784.167,234.5 781.833,234.5 779.5,234.5C 779.666,226.826 779.5,219.159 779,211.5C 776.565,206.776 772.731,205.276 767.5,207C 765.43,207.948 763.93,209.448 763,211.5C 761.604,219.08 761.104,226.747 761.5,234.5C 759.5,234.5 757.5,234.5 755.5,234.5C 755.5,223.5 755.5,212.5 755.5,201.5C 757.5,201.5 759.5,201.5 761.5,201.5C 761.343,202.873 761.51,204.207 762,205.5C 763.73,203.598 765.563,201.931 767.5,200.5 Z"/></g>
<g><path style="opacity:0.863" fill="#020404" d="M 803.5,200.5 C 809.605,199.651 815.105,200.984 820,204.5C 820.483,203.552 820.649,202.552 820.5,201.5C 822.5,201.5 824.5,201.5 826.5,201.5C 826.946,215.24 826.446,228.907 825,242.5C 821.336,247.917 816.169,250.583 809.5,250.5C 801.259,251.051 795.592,247.551 792.5,240C 793.954,238.287 795.788,237.12 798,236.5C 801.747,244.119 807.58,246.285 815.5,243C 819.966,239.901 821.466,235.735 820,230.5C 812.958,236.564 805.458,237.064 797.5,232C 789.5,222.667 789.5,213.333 797.5,204C 799.432,202.541 801.432,201.375 803.5,200.5 Z M 804.5,206.5 C 816.319,205.485 821.486,210.818 820,222.5C 815.377,229.94 809.211,231.44 801.5,227C 796.009,219.15 797.009,212.316 804.5,206.5 Z"/></g>
<g><path style="opacity:0.874" fill="#020404" d="M 345.5,201.5 C 347.5,201.5 349.5,201.5 351.5,201.5C 351.334,209.174 351.5,216.841 352,224.5C 355.274,229.738 359.774,230.904 365.5,228C 366.701,227.097 367.535,225.931 368,224.5C 369.396,216.92 369.896,209.253 369.5,201.5C 371.5,201.5 373.5,201.5 375.5,201.5C 375.5,212.5 375.5,223.5 375.5,234.5C 373.5,234.5 371.5,234.5 369.5,234.5C 369.657,233.127 369.49,231.793 369,230.5C 367.891,232.815 366.057,234.315 363.5,235C 356.631,236.948 351.131,235.115 347,229.5C 345.555,220.274 345.055,210.94 345.5,201.5 Z"/></g>
<g><path style="opacity:0.897" fill="#020404" d="M 383.5,201.5 C 385.5,201.5 387.5,201.5 389.5,201.5C 389.5,212.5 389.5,223.5 389.5,234.5C 387.5,234.5 385.5,234.5 383.5,234.5C 383.5,223.5 383.5,212.5 383.5,201.5 Z"/></g>
<g><path style="opacity:0.896" fill="#020404" d="M 693.5,201.5 C 695.5,201.5 697.5,201.5 699.5,201.5C 699.5,212.5 699.5,223.5 699.5,234.5C 697.5,234.5 695.5,234.5 693.5,234.5C 693.5,223.5 693.5,212.5 693.5,201.5 Z"/></g>
<g><path style="opacity:0.838" fill="#020404" d="M 704.5,201.5 C 706.792,201.244 708.959,201.577 711,202.5C 713.875,210.96 717.042,219.293 720.5,227.5C 724.216,219.36 727.549,211.026 730.5,202.5C 732.765,201.353 735.098,201.186 737.5,202C 733.003,212.66 729.003,223.493 725.5,234.5C 722.223,234.784 719.057,234.451 716,233.5C 711.86,222.912 708.027,212.246 704.5,201.5 Z"/></g>
<g><path style="opacity:0.897" fill="#020404" d="M 741.5,201.5 C 743.5,201.5 745.5,201.5 747.5,201.5C 747.5,212.5 747.5,223.5 747.5,234.5C 745.5,234.5 743.5,234.5 741.5,234.5C 741.5,223.5 741.5,212.5 741.5,201.5 Z"/></g>
</svg>
